<svg width="42" height="42" viewBox="0 0 42 42" fill="none" xmlns="http://www.w3.org/2000/svg">
<path fill-rule="evenodd" clip-rule="evenodd" d="M28 5.25C30.3206 5.25 32.5462 6.17187 34.1872 7.81282C35.8281 9.45376 36.75 11.6794 36.75 14V28C36.75 30.3206 35.8281 32.5462 34.1872 34.1872C32.5462 35.8281 30.3206 36.75 28 36.75H14C11.6794 36.75 9.45376 35.8281 7.81282 34.1872C6.17187 32.5462 5.25 30.3206 5.25 28V14C5.25 11.6794 6.17187 9.45376 7.81282 7.81282C9.45376 6.17187 11.6794 5.25 14 5.25H28ZM28 8.75H14C12.6076 8.75 11.2723 9.30312 10.2877 10.2877C9.30312 11.2723 8.75 12.6076 8.75 14V28C8.75 29.3924 9.30312 30.7277 10.2877 31.7123C11.2723 32.6969 12.6076 33.25 14 33.25H28C29.3924 33.25 30.7277 32.6969 31.7123 31.7123C32.6969 30.7277 33.25 29.3924 33.25 28V14C33.25 12.6076 32.6969 11.2723 31.7123 10.2877C30.7277 9.30312 29.3924 8.75 28 8.75ZM21 14C22.8565 14 24.637 14.7375 25.9497 16.0503C27.2625 17.363 28 19.1435 28 21C28 22.8565 27.2625 24.637 25.9497 25.9497C24.637 27.2625 22.8565 28 21 28C19.1435 28 17.363 27.2625 16.0503 25.9497C14.7375 24.637 14 22.8565 14 21C14 19.1435 14.7375 17.363 16.0503 16.0503C17.363 14.7375 19.1435 14 21 14ZM21 17.5C20.0717 17.5 19.1815 17.8687 18.5251 18.5251C17.8687 19.1815 17.5 20.0717 17.5 21C17.5 21.9283 17.8687 22.8185 18.5251 23.4749C19.1815 24.1313 20.0717 24.5 21 24.5C21.9283 24.5 22.8185 24.1313 23.4749 23.4749C24.1313 22.8185 24.5 21.9283 24.5 21C24.5 20.0717 24.1313 19.1815 23.4749 18.5251C22.8185 17.8687 21.9283 17.5 21 17.5ZM28.875 11.375C29.3391 11.375 29.7843 11.5594 30.1124 11.8876C30.4406 12.2158 30.625 12.6609 30.625 13.125C30.625 13.5891 30.4406 14.0342 30.1124 14.3624C29.7843 14.6906 29.3391 14.875 28.875 14.875C28.4109 14.875 27.9658 14.6906 27.6376 14.3624C27.3094 14.0342 27.125 13.5891 27.125 13.125C27.125 12.6609 27.3094 12.2158 27.6376 11.8876C27.9658 11.5594 28.4109 11.375 28.875 11.375Z" fill="#C3C3C3"/>
</svg>
