<svg width="41" height="36" viewBox="0 0 41 36" fill="none" xmlns="http://www.w3.org/2000/svg">
<path d="M2.91667 35.1725L39.2708 19.5892C39.6466 19.4291 39.9671 19.1621 40.1923 18.8213C40.4176 18.4805 40.5377 18.081 40.5377 17.6725C40.5377 17.264 40.4176 16.8646 40.1923 16.5238C39.9671 16.183 39.6466 15.916 39.2708 15.7559L2.91667 0.172528C2.60188 0.0352246 2.25786 -0.0215496 1.91564 0.00732595C1.57343 0.0362015 1.24379 0.149818 0.956455 0.337928C0.669123 0.526037 0.433143 0.78272 0.269801 1.08482C0.10646 1.38692 0.0208979 1.72493 0.0208333 2.06836L0 11.6725C0 12.7142 0.770833 13.61 1.8125 13.735L31.25 17.6725L1.8125 21.5892C0.770833 21.735 0 22.6309 0 23.6725L0.0208333 33.2767C0.0208333 34.7559 1.54167 35.7767 2.91667 35.1725Z" fill="#FF0303"/>
</svg>
